HIERARCHY
ROOT Hips
{
	OFFSET 0.00000 0.00000 0.00000
	CHANNELS 6 Xposition Yposition Zposition Zrotation Yrotation Xrotation 
	JOINT LHipJoint
	{
		OFFSET 0 0 0
		CHANNELS 3 Zrotation Yrotation Xrotation
		JOINT LeftHip
		{
			OFFSET 1.74857 -1.85566 0.69197
			CHANNELS 3 Zrotation Yrotation Xrotation
			JOINT LeftKnee
			{
				OFFSET 2.40003 -6.59403 0.00000
				CHANNELS 3 Zrotation Yrotation Xrotation
				JOINT LeftAnkle
				{
					OFFSET 2.82169 -7.75254 0.00000
					CHANNELS 3 Zrotation Yrotation Xrotation
					JOINT LeftToe
					{
						OFFSET 0.16466 -0.45240 2.26890
						CHANNELS 3 Zrotation Yrotation Xrotation
						End Site
						{
							OFFSET 0.00000 -0.00000 1.16486
						}
					}
				}
			}
		}
	}
	JOINT RHipJoint
	{
		OFFSET 0 0 0
		CHANNELS 3 Zrotation Yrotation Xrotation
		JOINT RightHip
		{
			OFFSET -1.64169 -1.85566 0.69197
			CHANNELS 3 Zrotation Yrotation Xrotation
			JOINT RightKnee
			{
				OFFSET -2.41814 -6.64379 0.00000
				CHANNELS 3 Zrotation Yrotation Xrotation
				JOINT RightAnkle
				{
					OFFSET -2.80588 -7.70911 0.00000
					CHANNELS 3 Zrotation Yrotation Xrotation
					JOINT RightToe
					{
						OFFSET -0.19098 -0.52472 2.25401
						CHANNELS 3 Zrotation Yrotation Xrotation
						End Site
						{
							OFFSET -0.00000 -0.00000 1.16333
						}
					}
				}
			}
		}
	}
	JOINT lowerback
	{
		OFFSET 0 0 0
		CHANNELS 3 Zrotation Yrotation Xrotation
		JOINT Chest
		{
			OFFSET -0.02828 2.14690 -0.11061
			CHANNELS 3 Zrotation Yrotation Xrotation
			JOINT Chest2
			{
				OFFSET -0.00167 2.15299 0.00759
				CHANNELS 3 Zrotation Yrotation Xrotation
				JOINT lowerneck
				{
					OFFSET 0 0 0
					CHANNELS 3 Zrotation Yrotation Xrotation
					JOINT Neck
					{
						OFFSET -0.09296 1.90118 0.07197
						CHANNELS 3 Zrotation Yrotation Xrotation
						JOINT Head
						{
							OFFSET 0.08490 1.89526 -0.24604
							CHANNELS 3 Zrotation Yrotation Xrotation
							End Site
							{
								OFFSET 0.03186 1.92109 -0.09483
							}
						}
					}
				}
				JOINT LeftCollar
				{
					OFFSET 0 0 0
					CHANNELS 3 Zrotation Yrotation Xrotation
					JOINT LeftShoulder
					{
						OFFSET 3.21569 1.44644 -0.03720
CHANNELS 3 Zrotation Xrotation Yrotation
						JOINT LeftElbow
						{
OFFSET 0 -5.476510 -0.000000
CHANNELS 3 Zrotation Xrotation Yrotation
							JOINT LeftWrist
							{
OFFSET 0 -3.090580 -0.000000
CHANNELS 3 Zrotation Xrotation Yrotation
								JOINT lhand
								{
									OFFSET 0 0 0
CHANNELS 3 Zrotation Xrotation Yrotation
									JOINT LFingers
									{
OFFSET 0 -0.771610 -0.000000
CHANNELS 3 Zrotation Xrotation Yrotation
										End Site
										{
OFFSET 0 -0.622090 -0.000000
										}
									}
								}
								JOINT LThumb
								{
OFFSET 0 0.000000 0.000000
CHANNELS 3 Zrotation Xrotation Yrotation
									End Site
									{
OFFSET 0 -0.631590 0.631590
									}
								}
							}
						}
					}
				}
				JOINT RightCollar
				{
					OFFSET 0 0 0
					CHANNELS 3 Zrotation Yrotation Xrotation
					JOINT RightShoulder
					{
						OFFSET -3.38693 1.28904 -0.07093
CHANNELS 3 Zrotation Xrotation Yrotation
						JOINT RightElbow
						{
OFFSET 0 -5.141820 -0.000000
CHANNELS 3 Zrotation Xrotation Yrotation
							JOINT RightWrist
							{
OFFSET 0 -3.355650 -0.000000
CHANNELS 3 Zrotation Xrotation Yrotation
								JOINT rhand
								{
									OFFSET 0 0 0
CHANNELS 3 Zrotation Xrotation Yrotation
									JOINT RFingers
									{
OFFSET 0 -0.801040 -0.000000
CHANNELS 3 Zrotation Xrotation Yrotation
										End Site
										{
OFFSET 0 -0.645820 -0.000000
										}
									}
								}
								JOINT RThumb
								{
OFFSET 0 0.000000 0.000000
CHANNELS 3 Zrotation Xrotation Yrotation
									End Site
									{
OFFSET 0 -0.655680 0.655680
									}
								}
							}
						}
					}
				}
			}
		}
	}
}
MOTION
Frames: 8
Frame Time: 0.008333333333333333
-1.607321 16.995149 -1.219987 7.636637 23.527181 5.278716 0.000000 0.000000 0.000000 -18.930291 -16.470600 -26.802723 5.135585 13.534730 41.404767 0.598901 -5.407927 -13.783671 1.500332 -7.736909 -21.917727 0.000000 0.000000 0.000000 15.716480 -8.460193 -33.084494 -8.087593 -16.183196 52.877422 -2.262689 -12.239194 -34.913038 -0.020637 0.925497 -2.543829 2.756415 5.632197 15.528331 -1.469347 7.873389 9.080254 -4.117791 4.178934 1.605118 -6.229691 -9.049768 6.437324 7.211485 -12.308390 -2.062728 3.662387 -6.257646 -0.879468 0.000000 0.000000 0.000000 103.526389 -15.051122 21.613971 113.867202 -57.734200 80.512379 -7.031404 -30.638515 -24.424651 0.000000 0.000000 0.000000 -7.125000 0.000000 0.000000 -35.922867 50.699612 5.681651 0.000000 0.000000 0.000000 -103.460276 -33.947762 -28.829234 -51.900890 -53.733875 -27.699676 -0.181163 -15.389933 -11.685179 0.000000 0.000000 0.000000 7.125000 0.000000 0.000000 18.677927 18.594789 12.423298
-1.564226 16.889136 -1.269532 7.753009 22.476569 4.419162 0.000000 0.000000 0.000000 -19.203093 -16.831717 -26.819656 5.607896 14.037294 43.386996 0.715376 -5.256725 -15.068633 0.829645 -5.810761 -16.236276 0.000000 0.000000 0.000000 15.041735 -8.060702 -33.171331 -8.551636 -16.510327 54.526160 -2.294967 -11.995876 -34.918743 -0.035185 1.210383 -3.327968 3.231199 5.803036 15.542659 -0.527128 8.158106 9.613953 -3.391424 4.332666 2.119675 -5.235944 -9.474441 6.596885 4.599419 -12.871082 -2.325740 2.666455 -6.483359 -1.189112 0.000000 0.000000 0.000000 105.767045 -14.999388 24.550940 113.289670 -57.847885 80.023683 -7.208146 -32.573271 -24.796370 0.000000 0.000000 0.000000 -7.125000 0.000000 0.000000 -36.330091 50.976850 6.034794 0.000000 0.000000 0.000000 -101.510687 -34.965030 -26.169816 -52.431352 -53.930161 -28.127861 -0.014492 -15.532786 -11.894942 0.000000 0.000000 0.000000 7.125000 0.000000 0.000000 18.766882 18.398981 12.576310
-1.442902 16.891537 -1.310683 7.460429 19.915268 3.545135 0.000000 0.000000 0.000000 -19.505872 -15.977862 -26.125709 5.763806 14.195506 44.026172 0.846141 -3.981729 -16.496878 0.947560 -6.196378 -17.356315 0.000000 0.000000 0.000000 14.639538 -7.060378 -32.343031 -8.503590 -16.477412 54.356967 -2.221019 -11.273170 -34.009130 -0.051263 1.457028 -4.007462 3.417753 5.587753 15.514491 0.142080 7.879917 9.731091 -2.757879 4.174073 2.160523 -4.828926 -8.870954 6.534957 2.348433 -12.108407 -2.172799 1.874743 -6.047977 -1.332251 0.000000 0.000000 0.000000 108.733789 -15.889156 26.746496 109.173640 -58.563665 76.524719 -8.193349 -32.751965 -24.500273 0.000000 0.000000 0.000000 -7.125000 0.000000 0.000000 -36.984322 50.574377 5.768722 0.000000 0.000000 0.000000 -99.125225 -36.989996 -23.134812 -54.105566 -54.522665 -29.486271 0.750264 -15.177239 -10.989624 0.000000 0.000000 0.000000 7.125000 0.000000 0.000000 19.380026 19.265239 12.639456
-1.256026 17.001288 -1.343986 6.725240 16.208125 2.944950 0.000000 0.000000 0.000000 -19.525543 -14.195684 -25.262308 5.578578 14.007102 43.265951 0.867107 -2.412427 -16.947127 0.933071 -6.153265 -17.229698 0.000000 0.000000 0.000000 14.712447 -5.416566 -30.772643 -7.887424 -16.035802 52.156109 -1.966239 -10.807953 -32.210607 -0.084751 1.876489 -5.164490 3.902698 5.248221 15.500826 0.262114 7.471080 9.332160 -2.878001 3.957451 1.756230 -3.328782 -7.584557 5.891228 -0.420412 -10.336870 -1.376445 0.693694 -5.119567 -1.254240 0.000000 0.000000 0.000000 112.337327 -18.448661 28.570457 101.691678 -59.476559 70.107434 -7.379699 -31.471697 -24.394132 0.000000 0.000000 0.000000 -7.125000 0.000000 0.000000 -36.206199 50.618086 5.658935 0.000000 0.000000 0.000000 -95.815017 -38.389113 -19.097422 -57.379345 -55.570025 -32.169885 0.848467 -15.334373 -10.644353 0.000000 0.000000 0.000000 7.125000 0.000000 0.000000 19.487150 19.591869 12.566020
-1.008549 17.203460 -1.363918 6.263919 12.127017 2.939760 0.000000 0.000000 0.000000 -20.043107 -12.425261 -23.932446 5.049616 13.439205 41.036085 0.827316 0.024949 -17.204414 1.006669 -6.384021 -17.902833 0.000000 0.000000 0.000000 14.403811 -3.769997 -28.816451 -6.813714 -15.172610 48.165450 -1.599723 -10.282341 -29.537029 -0.175060 2.680589 -7.391536 3.358326 4.489901 14.533208 0.452658 6.354451 9.175130 -2.174155 3.354906 1.917296 -3.744962 -5.387242 4.539122 -1.813435 -7.376384 -0.004554 0.190769 -3.648148 -0.676428 0.000000 0.000000 0.000000 114.535608 -20.466337 30.129217 92.337921 -59.978453 62.024558 -6.699249 -28.838412 -24.139611 0.000000 0.000000 0.000000 -7.125000 0.000000 0.000000 -35.442222 50.517296 5.412736 0.000000 0.000000 0.000000 -94.997139 -39.381628 -15.506778 -61.076774 -56.589669 -35.238539 -0.304203 -16.397685 -10.721879 0.000000 0.000000 0.000000 7.125000 0.000000 0.000000 18.701332 19.505435 12.036621
-0.747829 17.428076 -1.369291 5.314054 7.836438 3.033048 0.000000 0.000000 0.000000 -19.968268 -10.363357 -22.520096 4.408633 12.685018 38.200751 0.738758 2.113376 -17.134385 0.940730 -6.177099 -17.299312 0.000000 0.000000 0.000000 14.749226 -1.794133 -26.400984 -5.574429 -14.002442 43.248064 -1.240215 -9.657527 -26.559817 -0.201191 2.887673 -7.966184 2.638932 3.584439 14.008656 0.715647 5.048292 8.752212 -1.341584 2.637885 1.565630 -3.492386 -2.976753 3.737964 -3.311848 -4.107131 0.782044 -0.380029 -2.025471 -0.370430 0.000000 0.000000 0.000000 115.105806 -22.787014 30.607255 82.942527 -59.809380 53.891988 -5.589948 -25.646529 -23.758893 0.000000 0.000000 0.000000 -7.125000 0.000000 0.000000 -34.222129 50.376551 5.053918 0.000000 0.000000 0.000000 -94.917747 -39.698465 -12.403667 -64.830312 -57.464978 -38.387971 0.045257 -17.300824 -11.723609 0.000000 0.000000 0.000000 7.125000 0.000000 0.000000 18.825297 18.562132 12.547522
-0.479444 17.617127 -1.350872 4.532001 3.659846 3.340687 0.000000 0.000000 0.000000 -20.040159 -8.408063 -21.500624 3.908263 12.037299 35.864184 0.685225 3.575594 -17.338401 0.669259 -5.231030 -14.568780 0.000000 0.000000 0.000000 14.829647 0.706826 -24.136139 -4.555858 -12.865391 38.866706 -0.960127 -9.301458 -24.084611 -0.238071 3.139867 -8.668346 1.998426 2.970732 13.632968 0.487555 4.147016 8.203660 -1.118767 2.146567 1.111421 -2.216664 -1.138299 3.505811 -4.247035 -1.582146 1.361201 -0.911155 -0.773615 -0.178474 0.000000 0.000000 0.000000 115.633350 -25.312929 30.933687 75.228369 -59.158863 47.243510 -6.270108 -24.706288 -24.278085 0.000000 0.000000 0.000000 -7.125000 0.000000 0.000000 -35.158803 50.701054 5.532548 0.000000 0.000000 0.000000 -94.508224 -38.313346 -10.279462 -67.797195 -58.052754 -40.897497 1.123852 -19.250285 -11.714112 0.000000 0.000000 0.000000 7.125000 0.000000 0.000000 19.544965 18.586247 13.077657
-0.231355 17.684609 -1.354773 3.808823 0.300754 3.710410 0.000000 0.000000 0.000000 -20.028262 -6.750556 -21.562456 3.739976 11.806067 35.049383 0.731934 4.542984 -18.439317 0.704838 -5.365992 -14.955356 0.000000 0.000000 0.000000 14.812767 2.699499 -23.479276 -4.136021 -12.339276 36.942947 -0.805289 -8.862175 -22.385103 -0.352038 3.811971 -10.548225 1.010135 2.094111 13.643935 0.365609 2.874142 7.612211 -0.558365 1.462520 0.392195 -1.956071 0.749781 3.308837 -4.034093 0.972575 2.065084 -0.914815 0.481719 0.097471 0.000000 0.000000 0.000000 114.907633 -26.620266 29.661392 68.915577 -58.250990 41.847676 -5.491872 -22.530094 -24.017099 0.000000 0.000000 0.000000 -7.125000 0.000000 0.000000 -34.303389 50.608335 5.281638 0.000000 0.000000 0.000000 -95.068189 -36.953367 -9.062720 -71.317500 -58.638794 -43.894487 -0.835581 -21.666461 -10.458831 0.000000 0.000000 0.000000 7.125000 0.000000 0.000000 18.370789 19.747355 11.694174
